{
  "accessors": [
    {
      "bufferView": 2,
      "componentType": 5126,
      "count": 19770,
      "max": [
        0.20137900114059448,
        0.15570099651813507,
        1.2832809686660767
      ],
      "min": [
        -0.20148399472236633,
        -0.12326300144195557,
        0.9495369791984558
      ],
      "type": "VEC3"
    },
    {
      "bufferView": 2,
      "byteOffset": 237240,
      "componentType": 5126,
      "count": 19770,
      "max": [
        0.9997095465660095,
        0.9999436140060425,
        0.9991477727890015
      ],
      "min": [
        -0.9997300505638123,
        -0.9999908208847046,
        -0.999038815498352
      ],
      "type": "VEC3"
    },
    {
      "bufferView": 3,
      "componentType": 5126,
      "count": 19770,
      "max": [
        0.9999998807907104,
        0.9999815225601196,
        0.9999600648880005,
        1.0
      ],
      "min": [
        -0.9999885559082031,
        -0.9999951720237732,
        -0.9999985694885254,
        -1.0
      ],
      "type": "VEC4"
    },
    {
      "bufferView": 1,
      "componentType": 5126,
      "count": 19770,
      "max": [
        0.9811199903488159,
        0.9928609728813171
      ],
      "min": [
        0.014268999919295311,
        0.011237000115215778
      ],
      "type": "VEC2"
    },
    {
      "bufferView": 0,
      "componentType": 5125,
      "count": 110838,
      "type": "SCALAR"
    },
    {
      "bufferView": 2,
      "byteOffset": 474480,
      "componentType": 5126,
      "count": 12738,
      "max": [
        0.12135200202465057,
        0.05833100154995918,
        1.2712830305099487
      ],
      "min": [
        -0.12183699756860733,
        -0.1448879987001419,
        1.023468017578125
      ],
      "type": "VEC3"
    },
    {
      "bufferView": 2,
      "byteOffset": 627336,
      "componentType": 5126,
      "count": 12738,
      "max": [
        0.9999059438705444,
        0.9999771118164063,
        0.9995277523994446
      ],
      "min": [
        -0.9999830722808838,
        -0.9999775886535645,
        -0.9959675073623657
      ],
      "type": "VEC3"
    },
    {
      "bufferView": 3,
      "byteOffset": 316320,
      "componentType": 5126,
      "count": 12738,
      "max": [
        0.999995768070221,
        0.9994760751724243,
        0.9999983906745911,
        1.0
      ],
      "min": [
        -0.9999443888664246,
        -0.9999971389770508,
        -0.9999995231628418,
        -1.0
      ],
      "type": "VEC4"
    },
    {
      "bufferView": 1,
      "byteOffset": 158160,
      "componentType": 5126,
      "count": 12738,
      "max": [
        0.912775993347168,
        0.9829229712486267
      ],
      "min": [
        0.03668700158596039,
        0.013962999917566776
      ],
      "type": "VEC2"
    },
    {
      "bufferView": 0,
      "byteOffset": 443352,
      "componentType": 5125,
      "count": 72606,
      "type": "SCALAR"
    }
  ],
  "asset": {
    "extras": {
      "author": "Catzchen89 (https://sketchfab.com/catzchen89)",
      "license": "CC-BY-4.0 (http://creativecommons.org/licenses/by/4.0/)",
      "source": "https://sketchfab.com/3d-models/shorts-71cfa233eab94f2dbbb8f8f2da9fb38b",
      "title": "Shorts"
    },
    "generator": "Sketchfab-15.91.0",
    "version": "2.0"
  },
  "bufferViews": [
    {
      "buffer": 0,
      "byteLength": 733776,
      "name": "floatBufferViews",
      "target": 34963
    },
    {
      "buffer": 0,
      "byteLength": 260064,
      "byteOffset": 733776,
      "byteStride": 8,
      "name": "floatBufferViews",
      "target": 34962
    },
    {
      "buffer": 0,
      "byteLength": 780192,
      "byteOffset": 993840,
      "byteStride": 12,
      "name": "floatBufferViews",
      "target": 34962
    },
    {
      "buffer": 0,
      "byteLength": 520128,
      "byteOffset": 1774032,
      "byteStride": 16,
      "name": "floatBufferViews",
      "target": 34962
    }
  ],
  "buffers": [
    {
      "byteLength": 2294160,
      "uri": "scene.bin"
    }
  ],
  "extensionsRequired": [
    "KHR_materials_pbrSpecularGlossiness"
  ],
  "extensionsUsed": [
    "KHR_materials_pbrSpecularGlossiness"
  ],
  "images": [
    {
      "uri": "textures/Material_diffuse.png"
    },
    {
      "uri": "textures/Material_specularGlossiness.png"
    },
    {
      "uri": "textures/Material_normal.png"
    },
    {
      "uri": "textures/Material.001_diffuse.png"
    },
    {
      "uri": "textures/Material.001_specularGlossiness.png"
    },
    {
      "uri": "textures/Material.001_normal.png"
    }
  ],
  "materials": [
    {
      "doubleSided": true,
      "extensions": {
        "KHR_materials_pbrSpecularGlossiness": {
          "diffuseFactor": [
            1.0,
            1.0,
            1.0,
            1.0
          ],
          "diffuseTexture": {
            "index": 0
          },
          "glossinessFactor": 0.693335446355646,
          "specularFactor": [
            0.07161926588728651,
            0.07161926588728651,
            0.07161926588728651
          ],
          "specularGlossinessTexture": {
            "index": 1
          }
        }
      },
      "name": "Material",
      "normalTexture": {
        "index": 2
      }
    },
    {
      "doubleSided": true,
      "extensions": {
        "KHR_materials_pbrSpecularGlossiness": {
          "diffuseFactor": [
            1.0,
            1.0,
            1.0,
            1.0
          ],
          "diffuseTexture": {
            "index": 3
          },
          "glossinessFactor": 0.7028562372761518,
          "specularFactor": [
            0.29104850605258986,
            0.29104850605258986,
            0.29104850605258986
          ],
          "specularGlossinessTexture": {
            "index": 4
          }
        }
      },
      "name": "Material.001",
      "normalTexture": {
        "index": 5
      }
    }
  ],
  "meshes": [
    {
      "name": "Object_0",
      "primitives": [
        {
          "attributes": {
            "NORMAL": 1,
            "POSITION": 0,
            "TANGENT": 2,
            "TEXCOORD_0": 3
          },
          "indices": 4,
          "material": 0,
          "mode": 4
        }
      ]
    },
    {
      "name": "Object_1",
      "primitives": [
        {
          "attributes": {
            "NORMAL": 6,
            "POSITION": 5,
            "TANGENT": 7,
            "TEXCOORD_0": 8
          },
          "indices": 9,
          "material": 1,
          "mode": 4
        }
      ]
    }
  ],
  "nodes": [
    {
      "children": [
        1
      ],
      "matrix": [
        1.0,
        0.0,
        0.0,
        0.0,
        0.0,
        2.220446049250313e-16,
        -1.0,
        0.0,
        0.0,
        1.0,
        2.220446049250313e-16,
        0.0,
        0.0,
        0.0,
        0.0,
        1.0
      ],
      "name": "Sketchfab_model"
    },
    {
      "children": [
        2,
        3
      ],
      "name": "obj.obj.cleaner.materialmerger.gles"
    },
    {
      "mesh": 0,
      "name": "Object_2"
    },
    {
      "mesh": 1,
      "name": "Object_3"
    }
  ],
  "samplers": [
    {
      "magFilter": 9729,
      "minFilter": 9987,
      "wrapS": 10497,
      "wrapT": 10497
    }
  ],
  "scene": 0,
  "scenes": [
    {
      "name": "Sketchfab_Scene",
      "nodes": [
        0
      ]
    }
  ],
  "textures": [
    {
      "sampler": 0,
      "source": 0
    },
    {
      "sampler": 0,
      "source": 1
    },
    {
      "sampler": 0,
      "source": 2
    },
    {
      "sampler": 0,
      "source": 3
    },
    {
      "sampler": 0,
      "source": 4
    },
    {
      "sampler": 0,
      "source": 5
    }
  ]
}
